<svg width="1440" height="683" viewBox="0 0 1440 683" fill="none" xmlns="http://www.w3.org/2000/svg">
<g opacity="0.25">
<path d="M894.625 341.5C894.625 435.715 884.832 520.959 869.026 582.604C861.119 613.439 851.73 638.284 841.363 655.386C830.942 672.577 819.813 681.5 808.562 681.5C797.312 681.5 786.183 672.577 775.762 655.386C765.395 638.284 756.006 613.439 748.099 582.604C732.293 520.959 722.5 435.715 722.5 341.5C722.5 247.285 732.293 162.041 748.099 100.396C756.006 69.5613 765.395 44.7156 775.762 27.6144C786.183 10.4231 797.312 1.5 808.562 1.5C819.813 1.5 830.942 10.4231 841.363 27.6144C851.73 44.7156 861.119 69.5613 869.026 100.396C884.832 162.041 894.625 247.285 894.625 341.5Z" stroke="#9EC428" stroke-width="3"/>
<path d="M719.5 341.5C719.5 435.715 709.707 520.959 693.901 582.604C685.994 613.439 676.605 638.284 666.238 655.386C655.817 672.577 644.688 681.5 633.438 681.5C622.187 681.5 611.058 672.577 600.637 655.386C590.27 638.284 580.881 613.439 572.974 582.604C557.168 520.959 547.375 435.715 547.375 341.5C547.375 247.285 557.168 162.041 572.974 100.396C580.881 69.5613 590.27 44.7156 600.637 27.6144C611.058 10.4231 622.187 1.5 633.438 1.5C644.688 1.5 655.817 10.4231 666.238 27.6144C676.605 44.7156 685.994 69.5613 693.901 100.396C709.707 162.041 719.5 247.285 719.5 341.5Z" stroke="#9EC428" stroke-width="3"/>
<path d="M777.875 341.5C777.875 435.774 774.609 521.104 769.332 582.849C766.692 613.73 763.553 638.669 760.078 655.866C758.338 664.477 756.529 671.072 754.686 675.484C753.761 677.697 752.864 679.273 752.024 680.271C751.171 681.284 750.556 681.5 750.188 681.5C749.819 681.5 749.204 681.284 748.351 680.271C747.511 679.273 746.614 677.697 745.689 675.484C743.846 671.072 742.037 664.477 740.297 655.866C736.822 638.669 733.683 613.73 731.043 582.849C725.766 521.104 722.5 435.774 722.5 341.5C722.5 247.226 725.766 161.896 731.043 100.151C733.683 69.2703 736.822 44.3311 740.297 27.1339C742.037 18.5233 743.846 11.9283 745.689 7.51618C746.614 5.30329 747.511 3.7273 748.351 2.72899C749.204 1.71571 749.819 1.5 750.188 1.5C750.556 1.5 751.171 1.71571 752.024 2.72899C752.864 3.7273 753.761 5.30329 754.686 7.51618C756.529 11.9283 758.338 18.5233 760.078 27.1339C763.553 44.3311 766.692 69.2703 769.332 100.151C774.609 161.896 777.875 247.226 777.875 341.5Z" stroke="#9EC428" stroke-width="3"/>
<path d="M719.5 341.5C719.5 435.774 716.234 521.104 710.957 582.849C708.317 613.73 705.178 638.669 701.703 655.866C699.963 664.477 698.154 671.072 696.311 675.484C695.386 677.697 694.489 679.273 693.649 680.271C692.796 681.284 692.181 681.5 691.812 681.5C691.444 681.5 690.829 681.284 689.976 680.271C689.136 679.273 688.239 677.697 687.314 675.484C685.471 671.072 683.662 664.477 681.922 655.866C678.447 638.669 675.308 613.73 672.668 582.849C667.391 521.104 664.125 435.774 664.125 341.5C664.125 247.226 667.391 161.896 672.668 100.151C675.308 69.2703 678.447 44.3311 681.922 27.1339C683.662 18.5233 685.471 11.9283 687.314 7.51618C688.239 5.30329 689.136 3.7273 689.976 2.72899C690.829 1.71571 691.444 1.5 691.812 1.5C692.181 1.5 692.796 1.71571 693.649 2.72899C694.489 3.7273 695.386 5.30329 696.311 7.51618C698.154 11.9283 699.963 18.5233 701.703 27.1339C705.178 44.3311 708.317 69.2703 710.957 100.151C716.234 161.896 719.5 247.226 719.5 341.5Z" stroke="#9EC428" stroke-width="3"/>
<path d="M999.7 341.5C999.7 435.657 984.04 520.83 958.778 582.408C946.145 613.2 931.141 638.02 914.557 655.119C897.977 672.213 879.913 681.5 861.1 681.5C842.287 681.5 824.223 672.213 807.643 655.119C791.059 638.02 776.055 613.2 763.422 582.408C738.16 520.83 722.5 435.657 722.5 341.5C722.5 247.343 738.16 162.17 763.422 100.592C776.055 69.7997 791.059 44.9796 807.643 27.8811C824.223 10.7872 842.287 1.5 861.1 1.5C879.913 1.5 897.977 10.7872 914.557 27.8811C931.141 44.9796 946.145 69.7997 958.778 100.592C984.04 162.17 999.7 247.343 999.7 341.5Z" stroke="#9EC428" stroke-width="3"/>
<path d="M719.5 341.5C719.5 435.657 703.84 520.83 678.578 582.408C665.945 613.2 650.941 638.02 634.356 655.119C617.776 672.213 599.712 681.5 580.9 681.5C562.087 681.5 544.023 672.213 527.443 655.119C510.859 638.02 495.855 613.2 483.222 582.408C457.96 520.83 442.3 435.657 442.3 341.5C442.3 247.343 457.96 162.17 483.222 100.592C495.855 69.7997 510.859 44.9796 527.443 27.8811C544.023 10.7872 562.087 1.5 580.9 1.5C599.712 1.5 617.776 10.7872 634.356 27.8811C650.941 44.9796 665.945 69.7997 678.578 100.592C703.84 162.17 719.5 247.343 719.5 341.5Z" stroke="#9EC428" stroke-width="3"/>
<path d="M1139.8 341.5C1139.8 435.571 1116.33 520.664 1078.47 582.191C1040.59 643.742 988.466 681.5 931.15 681.5C873.834 681.5 821.706 643.742 783.829 582.191C745.967 520.664 722.5 435.571 722.5 341.5C722.5 247.429 745.967 162.336 783.829 100.809C821.706 39.2581 873.834 1.5 931.15 1.5C988.466 1.5 1040.59 39.2581 1078.47 100.809C1116.33 162.336 1139.8 247.429 1139.8 341.5Z" stroke="#9EC428" stroke-width="3"/>
<path d="M719.5 341.5C719.5 435.571 696.033 520.664 658.171 582.191C620.294 643.742 568.166 681.5 510.85 681.5C453.534 681.5 401.406 643.742 363.529 582.191C325.667 520.664 302.2 435.571 302.2 341.5C302.2 247.429 325.667 162.336 363.529 100.809C401.406 39.2581 453.534 1.5 510.85 1.5C568.166 1.5 620.294 39.2581 658.171 100.809C696.033 162.336 719.5 247.429 719.5 341.5Z" stroke="#9EC428" stroke-width="3"/>
<path d="M1279.9 341.5C1279.9 529.568 1154.86 681.5 1001.2 681.5C847.542 681.5 722.5 529.568 722.5 341.5C722.5 153.432 847.542 1.5 1001.2 1.5C1154.86 1.5 1279.9 153.432 1279.9 341.5Z" stroke="#9EC428" stroke-width="3"/>
<path d="M719.5 341.5C719.5 529.568 594.458 681.5 440.8 681.5C287.142 681.5 162.1 529.568 162.1 341.5C162.1 153.432 287.142 1.5 440.8 1.5C594.458 1.5 719.5 153.432 719.5 341.5Z" stroke="#9EC428" stroke-width="3"/>
<path d="M1420 341.5C1420 529.241 1263.9 681.5 1071.25 681.5C878.605 681.5 722.5 529.241 722.5 341.5C722.5 153.759 878.605 1.5 1071.25 1.5C1263.9 1.5 1420 153.759 1420 341.5Z" stroke="#9EC428" stroke-width="3"/>
<path d="M719.5 341.5C719.5 529.241 563.395 681.5 370.75 681.5C178.105 681.5 22 529.241 22 341.5C22 153.759 178.105 1.5 370.75 1.5C563.395 1.5 719.5 153.759 719.5 341.5Z" stroke="#9EC428" stroke-width="3"/>
<path d="M1560.1 341.5C1560.1 529.001 1372.9 681.5 1141.3 681.5C909.697 681.5 722.5 529.001 722.5 341.5C722.5 153.999 909.697 1.5 1141.3 1.5C1372.9 1.5 1560.1 153.999 1560.1 341.5Z" stroke="#9EC428" stroke-width="3"/>
<path d="M719.5 341.5C719.5 529.001 532.303 681.5 300.7 681.5C69.097 681.5 -118.1 529.001 -118.1 341.5C-118.1 153.999 69.097 1.5 300.7 1.5C532.303 1.5 719.5 153.999 719.5 341.5Z" stroke="#9EC428" stroke-width="3"/>
</g>
</svg>
