<?xml version="1.0" encoding="utf-8"?>
<!-- Generator: Adobe Illustrator 27.8.0, SVG Export Plug-In . SVG Version: 6.00 Build 0)  -->
<svg version="1.1" id="Livello_1" xmlns="http://www.w3.org/2000/svg" xmlns:xlink="http://www.w3.org/1999/xlink" x="0px" y="0px"
	 viewBox="0 0 841.9 236.7" style="enable-background:new 0 0 841.9 236.7;" xml:space="preserve">
<style type="text/css">
	.st0{fill-rule:evenodd;clip-rule:evenodd;fill:#FFFFFF;}
	.st1{fill:#FFFFFF;}
	.st2{enable-background:new    ;}
	.st3{fill-rule:evenodd;clip-rule:evenodd;fill:#010202;}
	.st4{fill:#010202;}
	.st5{fill-rule:evenodd;clip-rule:evenodd;fill:#9EC528;}
	.st6{fill:#9EC528;}
</style>
<g>
	<g>
		<path class="st5" d="M37.8,38.5C99.3-14.4,149,12.1,168,33.6c17.6,21.3,39.6,72.1-8,111.4c-25.8,21.1-51.5,16.8-64.4,14.7
			c-0.9,0-1.9-0.3-2.6-0.5c-27.4-4.4-25.8,21.5-24.6,28.3c4.9,27.8,4.4,37.5-9.3,41.9c-16.9,5.4-27.1-12.9-33.9-31.4
			C19.8,183-15.2,84,37.5,38.6L37.8,38.5z M125.1,101c10.3-8.7,11.5-21.8,2.8-32.3c-8.7-10.3-21.8-10.3-32.1-1.6S84.2,87.7,93,98
			s21.8,11.5,32.1,2.8V101z"/>
		<path class="st6" d="M832,97.1h-40.1c0.9,10.1,8.7,15.9,18,15.9c9.3,0,11.3-2.8,15-6.6l6.1,7.2c-5.9,6.1-12.9,8.9-21.3,8.9
			c-16.9,0-28.5-12-28.5-27.6s10.8-27.9,26.9-27.9s24.4,11,24.4,24.6C832.5,93.9,832.3,95.4,832,97.1L832,97.1z M808.1,76
			c-8.2,0-14.3,4.9-15.9,12.9h30.4C821.9,80.9,815.9,76,808.1,76L808.1,76z"/>
		<path class="st6" d="M721.2,68.1H732l15.4,39.4l15.4-39.4h10.8l-21.6,53.1h-9.3L721,68.1L721.2,68.1z"/>
		<path class="st6" d="M703.7,58.7c-3.5,0-6.5-3-6.5-6.5s3-6.5,6.5-6.5c3.5,0,6.5,2.8,6.5,6.5S707.2,58.7,703.7,58.7z"/>
		<path class="st6" d="M698.5,105.3l0.2-37.2h10.1v36.1c0,5.9,2.8,8.7,8.6,8.7c5.8,0,3.8-0.2,6.3-1.7v9.3c-1.9,1.2-4.9,1.7-8.6,1.7
			C704.7,122.3,698.5,116.1,698.5,105.3L698.5,105.3z"/>
		<path class="st6" d="M651.7,68.1h8.2V53.7h9.8v14.5h13.6v8.6h-13.6v27.6c0,5.9,2.8,8.7,8.6,8.7c5.8,0,3.8-0.2,6.3-1.7v9.3
			c-1.9,1.2-4.9,1.7-8.6,1.7c-10.3,0-16.6-6.1-16.6-16.9v-29h-8v-8.6L651.7,68.1z"/>
		<path class="st6" d="M643.1,111.3c-4.7,6.8-12.7,11.2-22,11.2c-15.4,0-27.6-12.2-27.6-27.9s12.2-27.6,27.6-27.6
			c8.9,0,16.4,4.4,21.1,11.2l-6.6,6.5c-3.3-4.7-8.2-8.2-14.5-8.2c-9.9,0-17.1,8-17.1,18.3s7.3,18.3,17.1,18.3c9.8,0,12-3.1,15.4-8
			l6.8,6.5L643.1,111.3z"/>
		<path class="st6" d="M475.9,142h-10.1V68h9.8v7.7c3.3-5.1,10.6-9.1,18-9.1c14.1,0,25.1,11.7,25.1,27.8s-11,27.8-25.1,27.8
			s-14.3-3.7-17.5-8.6v28.1L475.9,142z M475.4,94.5c0,11,7.7,18.5,16.4,18.5c8.7,0,16.6-7.5,16.6-18.5S500.7,76,491.8,76
			C482.9,76,475.4,83.3,475.4,94.5z"/>
		<path class="st6" d="M448.9,77l-7.3,5.4c-2.6-4-6.1-6.8-11.3-6.8s-8.6,2.4-8.6,6.1c0,3.7,2.6,5.2,10.8,8c11.7,4,17.5,8,17.5,17.1
			s-8.2,15.2-19.5,15.2s-17.1-4.5-20.8-11.7l7.5-5.4c3.3,4.9,7.5,8,13.3,8c5.8,0,9.8-2.4,9.8-5.9s-2.1-5.6-11.9-8.7
			c-10.8-3.5-16.6-7.7-16.6-16.4s8-15.4,19-15.4s14.8,3.8,18.3,10.3L448.9,77z"/>
		<path class="st6" d="M383.1,68.1v9.3c2.6-6.5,8-10.7,15.2-10.6c1.6,0,2.6,0.2,3.3,0.3V77c-0.3,0-1.4-0.2-2.1-0.2
			c-9.8,0-16.1,7-16.1,17.8V121h-10.1V68h9.9L383.1,68.1z"/>
		<path class="st6" d="M356.7,97.1h-40.1c0.9,10.1,8.7,15.9,18,15.9s11.3-2.8,15-6.6l6.1,7.2c-5.9,6.1-12.9,8.9-21.3,8.9
			c-16.9,0-28.5-12-28.5-27.6s10.8-27.9,26.9-27.9c16.1,0,24.4,11,24.4,24.6C357.2,95.4,356.7,97.1,356.7,97.1z M332.8,76
			c-8.2,0-14.3,4.9-15.9,12.9h30.4C346.6,80.9,340.6,76,332.8,76L332.8,76z"/>
		<path class="st6" d="M251.3,142h-10.1V68h9.8v7.7c3.3-5.1,10.6-9.1,18-9.1c14.1,0,25.1,11.7,25.1,27.8s-11,27.8-25.1,27.8
			c-6.6,0-14.3-3.7-17.5-8.6v28.1L251.3,142z M250.8,94.5c0,11,7.7,18.5,16.4,18.5c8.7,0,16.6-7.5,16.6-18.5S276.1,76,267.2,76
			C258.3,76,250.8,83.3,250.8,94.5z"/>
		<g class="st2">
			<path class="st6" d="M248.8,163.5h5l11.8,32.6h-4.8l-3.3-9.7h-12.9l-3.5,9.7h-4.5L248.8,163.5z M256.1,182.7l-4.9-14.4l-5.3,14.4
				H256.1z"/>
			<path class="st6" d="M269.2,172.4h3.8v4.1c0.3-0.8,1.1-1.8,2.3-2.9c1.2-1.1,2.6-1.7,4.2-1.7c0.1,0,0.2,0,0.4,0
				c0.2,0,0.5,0,0.9,0.1v4.2c-0.2,0-0.5-0.1-0.7-0.1c-0.2,0-0.4,0-0.7,0c-2,0-3.6,0.6-4.6,1.9c-1.1,1.3-1.6,2.8-1.6,4.5v13.6h-4
				V172.4z"/>
			<path class="st6" d="M285,165.7h4v6.6h3.8v3.3h-3.8v15.5c0,0.8,0.3,1.4,0.8,1.7c0.3,0.2,0.8,0.2,1.6,0.2c0.2,0,0.4,0,0.6,0
				c0.2,0,0.5,0,0.8-0.1v3.1c-0.5,0.1-0.9,0.2-1.4,0.3c-0.5,0.1-1,0.1-1.6,0.1c-1.9,0-3.1-0.5-3.8-1.4c-0.7-1-1-2.2-1-3.7v-15.7
				h-3.2v-3.3h3.2V165.7z"/>
			<path class="st6" d="M296.8,163.5h4.1v4.5h-4.1V163.5z M296.8,172.5h4.1v23.6h-4.1V172.5z"/>
			<path class="st6" d="M308.8,165.1c0.9-1.4,2.7-2,5.4-2c0.3,0,0.5,0,0.8,0c0.3,0,0.6,0,0.9,0.1v3.6c-0.4,0-0.7,0-0.9-0.1
				c-0.2,0-0.4,0-0.5,0c-1.2,0-1.9,0.3-2.2,0.9c-0.2,0.6-0.4,2.2-0.4,4.8h3.9v3.1h-4v20.5h-3.9v-20.5h-3.3v-3.1h3.3v-3.7
				C308,167.1,308.3,165.9,308.8,165.1z"/>
			<path class="st6" d="M319.5,163.5h4.1v4.5h-4.1V163.5z M319.5,172.5h4.1v23.6h-4.1V172.5z"/>
			<path class="st6" d="M345.3,173.6c1.7,1.3,2.7,3.5,3,6.7h-3.9c-0.2-1.5-0.8-2.7-1.6-3.6c-0.8-1-2.2-1.5-4.1-1.5
				c-2.5,0-4.4,1.2-5.5,3.7c-0.7,1.6-1.1,3.6-1.1,6c0,2.4,0.5,4.4,1.5,6s2.6,2.4,4.7,2.4c1.7,0,3-0.5,3.9-1.5c1-1,1.6-2.4,2-4.2h3.9
				c-0.4,3.1-1.6,5.4-3.3,6.9c-1.8,1.5-4,2.2-6.8,2.2c-3.1,0-5.6-1.1-7.4-3.4c-1.8-2.3-2.8-5.1-2.8-8.5c0-4.2,1-7.4,3-9.7
				s4.6-3.5,7.7-3.5C341.4,171.7,343.6,172.3,345.3,173.6z"/>
			<path class="st6" d="M352.3,163.5h4.1v4.5h-4.1V163.5z M352.3,172.5h4.1v23.6h-4.1V172.5z"/>
			<path class="st6" d="M375.1,181.7c0.9-0.1,1.5-0.5,1.8-1.2c0.2-0.4,0.3-0.9,0.3-1.5c0-1.4-0.5-2.3-1.5-3c-1-0.6-2.4-0.9-4.2-0.9
				c-2.1,0-3.6,0.6-4.4,1.7c-0.5,0.6-0.8,1.5-1,2.8h-3.7c0.1-2.9,1-5,2.8-6.1c1.8-1.1,3.9-1.7,6.3-1.7c2.8,0,5.1,0.5,6.8,1.6
				c1.7,1.1,2.6,2.7,2.6,5V192c0,0.4,0.1,0.7,0.3,1c0.2,0.3,0.5,0.4,1.1,0.4c0.2,0,0.4,0,0.6,0c0.2,0,0.5-0.1,0.7-0.1v2.9
				c-0.6,0.2-1.1,0.3-1.4,0.3c-0.3,0-0.8,0.1-1.3,0.1c-1.4,0-2.4-0.5-3-1.5c-0.3-0.5-0.6-1.2-0.7-2.2c-0.8,1.1-2,2-3.5,2.8
				s-3.2,1.2-5,1.2c-2.2,0-4-0.7-5.4-2c-1.4-1.3-2.1-3-2.1-5c0-2.2,0.7-3.9,2.1-5.1c1.4-1.2,3.2-2,5.4-2.2L375.1,181.7z
				 M366.7,192.5c0.8,0.7,1.8,1,3,1c1.4,0,2.8-0.3,4.1-1c2.2-1.1,3.3-2.8,3.3-5.3V184c-0.5,0.3-1.1,0.6-1.9,0.8
				c-0.8,0.2-1.5,0.4-2.3,0.4l-2.4,0.3c-1.4,0.2-2.5,0.5-3.3,0.9c-1.2,0.7-1.8,1.8-1.8,3.3C365.4,190.9,365.9,191.8,366.7,192.5z"/>
			<path class="st6" d="M387.7,163.5h4v32.6h-4V163.5z"/>
			<path class="st6" d="M411.8,163.5h4.5v32.6h-4.5V163.5z"/>
			<path class="st6" d="M422.9,172.4h3.8v3.4c1.1-1.4,2.3-2.4,3.6-3c1.3-0.6,2.7-0.9,4.2-0.9c3.4,0,5.6,1.2,6.8,3.5
				c0.7,1.3,1,3.1,1,5.5v15.2h-4.1v-15c0-1.4-0.2-2.6-0.6-3.5c-0.7-1.5-2-2.2-3.9-2.2c-0.9,0-1.7,0.1-2.3,0.3
				c-1.1,0.3-2.1,1-2.9,1.9c-0.7,0.8-1.1,1.6-1.3,2.4c-0.2,0.8-0.3,2-0.3,3.6v12.4h-4V172.4z"/>
			<path class="st6" d="M449,165.7h4v6.6h3.8v3.3H453v15.5c0,0.8,0.3,1.4,0.8,1.7c0.3,0.2,0.8,0.2,1.6,0.2c0.2,0,0.4,0,0.6,0
				c0.2,0,0.5,0,0.8-0.1v3.1c-0.5,0.1-0.9,0.2-1.4,0.3c-0.5,0.1-1,0.1-1.6,0.1c-1.9,0-3.1-0.5-3.8-1.4c-0.7-1-1-2.2-1-3.7v-15.7
				h-3.2v-3.3h3.2V165.7z"/>
			<path class="st6" d="M475.5,173c1.6,0.8,2.8,1.8,3.6,3.1c0.8,1.2,1.3,2.6,1.6,4.2c0.2,1.1,0.4,2.8,0.4,5.2h-17.4
				c0.1,2.4,0.6,4.3,1.7,5.8c1.1,1.5,2.7,2.2,4.9,2.2c2.1,0,3.7-0.7,5-2.1c0.7-0.8,1.2-1.7,1.5-2.8h3.9c-0.1,0.9-0.4,1.8-1,2.9
				c-0.6,1.1-1.2,1.9-2,2.6c-1.2,1.2-2.7,2-4.5,2.4c-1,0.2-2,0.4-3.3,0.4c-3,0-5.5-1.1-7.5-3.2c-2.1-2.1-3.1-5.2-3.1-9
				c0-3.8,1-6.9,3.1-9.3c2.1-2.4,4.8-3.6,8.1-3.6C472.3,171.8,474,172.2,475.5,173z M477,182.3c-0.2-1.7-0.5-3.1-1.1-4.1
				c-1.1-1.9-2.9-2.9-5.5-2.9c-1.8,0-3.4,0.7-4.6,2c-1.2,1.3-1.9,3-2,5H477z"/>
			<path class="st6" d="M486.1,163.5h4v32.6h-4V163.5z"/>
			<path class="st6" d="M496.2,163.5h4v32.6h-4V163.5z"/>
			<path class="st6" d="M506.2,163.5h4.1v4.5h-4.1V163.5z M506.2,172.5h4.1v23.6h-4.1V172.5z"/>
			<path class="st6" d="M529.5,173.3c0.8,0.5,1.5,1.3,2.3,2.3v-3h3.7v21.6c0,3-0.4,5.4-1.3,7.1c-1.7,3.2-4.8,4.8-9.4,4.8
				c-2.6,0-4.7-0.6-6.4-1.7c-1.7-1.1-2.7-2.9-2.9-5.4h4.1c0.2,1.1,0.6,1.9,1.2,2.5c0.9,0.9,2.3,1.3,4.3,1.3c3.1,0,5.1-1.1,6-3.2
				c0.6-1.3,0.8-3.5,0.8-6.8c-0.8,1.2-1.8,2.1-2.9,2.7c-1.1,0.6-2.6,0.9-4.5,0.9c-2.6,0-4.8-0.9-6.7-2.7c-1.9-1.8-2.9-4.8-2.9-9.1
				c0-4,1-7.1,2.9-9.3c1.9-2.2,4.3-3.3,7-3.3C526.5,171.9,528.1,172.4,529.5,173.3z M530,177.6c-1.2-1.4-2.8-2.1-4.6-2.1
				c-2.8,0-4.7,1.3-5.8,3.9c-0.5,1.4-0.8,3.2-0.8,5.5c0,2.7,0.5,4.7,1.6,6.1c1.1,1.4,2.5,2.1,4.4,2.1c2.9,0,4.9-1.3,6-3.9
				c0.7-1.5,1-3.2,1-5.1C531.8,181.2,531.2,179,530,177.6z"/>
			<path class="st6" d="M556.3,173c1.6,0.8,2.8,1.8,3.6,3.1c0.8,1.2,1.3,2.6,1.6,4.2c0.2,1.1,0.4,2.8,0.4,5.2h-17.4
				c0.1,2.4,0.6,4.3,1.7,5.8c1.1,1.5,2.7,2.2,4.9,2.2c2.1,0,3.7-0.7,5-2.1c0.7-0.8,1.2-1.7,1.5-2.8h3.9c-0.1,0.9-0.4,1.8-1,2.9
				c-0.6,1.1-1.2,1.9-2,2.6c-1.2,1.2-2.7,2-4.5,2.4c-1,0.2-2,0.4-3.3,0.4c-3,0-5.5-1.1-7.5-3.2c-2.1-2.1-3.1-5.2-3.1-9
				c0-3.8,1-6.9,3.1-9.3c2.1-2.4,4.8-3.6,8.1-3.6C553.1,171.8,554.7,172.2,556.3,173z M557.7,182.3c-0.2-1.7-0.5-3.1-1.1-4.1
				c-1.1-1.9-2.9-2.9-5.5-2.9c-1.8,0-3.4,0.7-4.6,2c-1.2,1.3-1.9,3-2,5H557.7z"/>
			<path class="st6" d="M566.7,172.4h3.8v3.4c1.1-1.4,2.3-2.4,3.6-3c1.3-0.6,2.7-0.9,4.2-0.9c3.4,0,5.6,1.2,6.8,3.5
				c0.7,1.3,1,3.1,1,5.5v15.2H582v-15c0-1.4-0.2-2.6-0.6-3.5c-0.7-1.5-2-2.2-3.9-2.2c-0.9,0-1.7,0.1-2.3,0.3c-1.1,0.3-2.1,1-2.9,1.9
				c-0.7,0.8-1.1,1.6-1.3,2.4c-0.2,0.8-0.3,2-0.3,3.6v12.4h-4V172.4z"/>
			<path class="st6" d="M607.6,173.6c1.7,1.3,2.7,3.5,3,6.7h-3.9c-0.2-1.5-0.8-2.7-1.6-3.6c-0.8-1-2.2-1.5-4.1-1.5
				c-2.5,0-4.4,1.2-5.5,3.7c-0.7,1.6-1.1,3.6-1.1,6c0,2.4,0.5,4.4,1.5,6c1,1.6,2.6,2.4,4.7,2.4c1.7,0,3-0.5,3.9-1.5
				c1-1,1.6-2.4,2-4.2h3.9c-0.4,3.1-1.6,5.4-3.3,6.9c-1.8,1.5-4,2.2-6.8,2.2c-3.1,0-5.6-1.1-7.4-3.4c-1.8-2.3-2.8-5.1-2.8-8.5
				c0-4.2,1-7.4,3-9.7c2-2.3,4.6-3.5,7.7-3.5C603.8,171.7,606,172.3,607.6,173.6z"/>
			<path class="st6" d="M629.4,173c1.6,0.8,2.8,1.8,3.6,3.1c0.8,1.2,1.3,2.6,1.6,4.2c0.2,1.1,0.4,2.8,0.4,5.2h-17.4
				c0.1,2.4,0.6,4.3,1.7,5.8c1.1,1.5,2.7,2.2,4.9,2.2c2.1,0,3.7-0.7,5-2.1c0.7-0.8,1.2-1.7,1.5-2.8h3.9c-0.1,0.9-0.4,1.8-1,2.9
				c-0.6,1.1-1.2,1.9-2,2.6c-1.2,1.2-2.7,2-4.5,2.4c-1,0.2-2,0.4-3.3,0.4c-3,0-5.5-1.1-7.5-3.2c-2.1-2.1-3.1-5.2-3.1-9
				c0-3.8,1-6.9,3.1-9.3c2.1-2.4,4.8-3.6,8.1-3.6C626.2,171.8,627.9,172.2,629.4,173z M630.9,182.3c-0.2-1.7-0.5-3.1-1.1-4.1
				c-1.1-1.9-2.9-2.9-5.5-2.9c-1.8,0-3.4,0.7-4.6,2c-1.2,1.3-1.9,3-2,5H630.9z"/>
		</g>
	</g>
	<path class="st6" d="M581.3,97.3h-40.1c0.9,10.1,8.7,15.9,18,15.9c9.3,0,11.3-2.8,15-6.6l6.1,7.2c-5.9,6.1-12.9,8.9-21.3,8.9
		c-16.9,0-28.5-12-28.5-27.6s10.8-27.9,26.9-27.9c16.1,0,24.4,11,24.4,24.6C581.9,95.6,581.3,97.3,581.3,97.3z M557.4,76.2
		c-8.2,0-14.3,4.9-15.9,12.9h30.4C571.2,81.1,565.3,76.2,557.4,76.2L557.4,76.2z"/>
</g>
</svg>
